<?xml version="1.0" encoding="iso-8859-1"?>
<!-- Uploaded to: SVG Repo, www.svgrepo.com, Generator: SVG Repo Mixer Tools -->
<svg fill="#000000" height="800px" width="800px" version="1.1" id="Layer_1" xmlns="http://www.w3.org/2000/svg" xmlns:xlink="http://www.w3.org/1999/xlink" 
	 viewBox="0 0 511.733 511.733" xml:space="preserve">
<g transform="translate(1 1)">
	<g>
		<g>
			<path d="M384.147,151.48h-13.942c-10.201-22.737-26.698-41.27-46.845-54.131l7.028-49.975l56.32-32.427
				c4.267-2.56,5.12-7.68,3.413-11.947c-2.56-4.267-7.68-5.12-11.093-2.56l-59.733,34.133c-2.56,0.853-4.267,3.413-4.267,5.973
				l-6.925,48.474c-16.549-7.625-34.821-11.78-53.662-11.78c-49.613,0-94.556,28.696-115.656,74.24h-13.197
				c-13.653,0-24.747,11.093-24.747,24.747v2.56c0,11.316,7.623,20.866,18.004,23.807l5.917,42.53
				c-0.028,0.634-0.028,1.282-0.028,1.93l23.893,170.667c0.079,0.397,0.188,0.783,0.31,1.163l9.93,71.37
				c1.707,11.947,11.093,20.48,23.04,20.48H318.44c11.947,0,21.333-8.533,23.04-19.627l11.799-70.186
				c0.457-0.754,0.801-1.55,1.001-2.347l28.16-170.667c0.259-0.776,0.344-1.549,0.313-2.302l7.228-42.995
				c10.432-2.921,18.204-12.487,18.913-23.824v-2.56C408.893,162.573,397.8,151.48,384.147,151.48z M255.293,94.307
				c40.631,0,77.893,21.839,96.814,57.173H157.626C176.533,116.146,212.969,94.307,255.293,94.307z M366.477,237.667H140.542
				l-4.715-34.133H372.2L366.477,237.667z M337.862,408.333H164.84l-21.333-153.6h220.109L337.862,408.333z M318.44,493.667H181.907
				c-2.56,0-5.973-2.56-6.827-5.973l-8.605-62.293h168.526l-10.587,63.147C324.413,491.107,321.853,493.667,318.44,493.667z
				 M391.827,178.787c0,4.267-3.413,7.68-7.68,7.68h-1.707h-256h-0.853c-4.267,0-7.68-3.413-7.68-6.827v-2.56
				c0-4.267,3.413-7.68,7.68-7.68v-0.853h14.625c1.052,0.513,2.171,0.853,3.294,0.853h221.867c1.124,0,2.243-0.34,3.294-0.853
				h15.479c4.267,0,7.68,3.413,7.68,7.68V178.787z"/>
			<path d="M254.44,391.267c33.28,0,59.733-26.453,59.733-59.733c0-33.28-26.453-59.733-59.733-59.733
				c-33.28,0-59.733,26.453-59.733,59.733C194.707,364.813,221.16,391.267,254.44,391.267z M254.44,288.867
				c23.893,0,42.667,18.773,42.667,42.667c0,23.893-18.773,42.667-42.667,42.667s-42.667-18.773-42.667-42.667
				C211.773,307.64,230.547,288.867,254.44,288.867z"/>
		</g>
	</g>
</g>
</svg>